<?xml version="1.0" encoding="utf-8"?>
<!-- Generator: Adobe Illustrator 16.0.0, SVG Export Plug-In . SVG Version: 6.00 Build 0)  -->
<!DOCTYPE svg PUBLIC "-//W3C//DTD SVG 1.1//EN" "http://www.w3.org/Graphics/SVG/1.1/DTD/svg11.dtd">
<svg version="1.1" xmlns="http://www.w3.org/2000/svg" xmlns:xlink="http://www.w3.org/1999/xlink" x="0px" y="0px" width="270px"
	 height="72px" viewBox="0 0 270 72" enable-background="new 0 0 270 72" xml:space="preserve">
<g id="katman_2">
	<linearGradient id="SVGID_1_" gradientUnits="userSpaceOnUse" x1="2.4414" y1="36.3223" x2="57.5449" y2="36.3223">
		<stop  offset="1" style="stop-color:#FFFFFF"/>
		<stop  offset="1" style="stop-color:#000000"/>
	</linearGradient>
	
		<circle fill="url(#SVGID_1_)" stroke="#FFFFFF" stroke-width="0.6586" stroke-miterlimit="3.8636" cx="29.826" cy="36.322" r="27.552"/>
</g>
<g id="katman_1">
	<path fill-rule="evenodd" clip-rule="evenodd" fill="#FFFFFF" d="M66.085,51.154c0,3.93,1.022,5.813,2.341,7.078
		c1.911,1.803,4.629,1.911,5.544,1.911c1.588,0,3.605-0.269,5.542-1.992c2.154-1.91,2.477-5.141,2.477-8.046v-2.88
		c0-4.199,0-4.952,0.054-5.813c0.054-0.941,0.27-1.371,0.997-1.533c0.322-0.055,0.484-0.081,0.671-0.081
		c0.109,0,0.216-0.054,0.216-0.161c0-0.162-0.135-0.216-0.431-0.216c-0.808,0-2.072,0.081-2.262,0.081
		c-0.161,0-1.641-0.081-2.852-0.081c-0.296,0-0.431,0.054-0.431,0.216c0,0.107,0.108,0.161,0.215,0.161
		c0.242,0,0.7,0.026,0.915,0.081c0.888,0.188,1.104,0.619,1.158,1.533c0.053,0.861,0.053,1.614,0.053,5.813v3.364
		c0,2.771-0.323,5.06-1.561,6.593c-0.968,1.157-2.583,1.938-4.225,1.938c-1.534,0-2.746-0.243-4.064-1.48
		c-1.157-1.104-2.018-2.772-2.018-6.647v-3.768c0-4.199,0-4.952,0.054-5.813c0.055-0.941,0.269-1.426,0.996-1.533
		c0.324-0.055,0.484-0.081,0.673-0.081c0.108,0,0.215-0.054,0.215-0.161c0-0.162-0.134-0.216-0.431-0.216
		c-0.807,0-2.422,0.081-2.665,0.081s-1.883-0.081-3.095-0.081c-0.296,0-0.43,0.054-0.43,0.216c0,0.107,0.108,0.161,0.215,0.161
		c0.242,0,0.7,0.026,0.916,0.081c0.888,0.188,1.103,0.619,1.157,1.533c0.055,0.861,0.055,1.614,0.055,5.813V51.154z"/>
	<path fill-rule="evenodd" clip-rule="evenodd" fill="#FFFFFF" d="M90.37,43.215c0.861,0.97,3.896,4.36,7.014,7.725
		c2.848,3.067,6.716,7.023,7.012,7.293c1.43,1.426,1.755,1.723,1.972,1.723c0.19,0,0.245-0.135,0.245-1.911l0.054-15.771
		c0-1.614,0.107-2.206,0.996-2.395c0.322-0.081,0.511-0.081,0.646-0.081c0.188,0,0.296-0.081,0.296-0.188
		c0-0.162-0.189-0.188-0.484-0.188c-1.104,0-1.995,0.081-2.294,0.081c-0.298,0-1.591-0.081-2.799-0.081
		c-0.323,0-0.538,0.026-0.538,0.188c0,0.107,0.026,0.188,0.214,0.188c0.216,0,0.833,0.026,1.316,0.134
		c0.833,0.217,1.021,0.808,1.049,2.557l0.296,13.673c-0.861-0.889-3.79-4.172-6.449-7.024c-4.138-4.441-8.142-8.774-8.545-9.231
		c-0.271-0.269-0.732-0.86-0.95-0.86c-0.216,0-0.298,0.295-0.298,1.345l-0.027,15.421c0,2.449-0.135,3.229-0.808,3.418
		c-0.403,0.134-0.888,0.161-1.104,0.161c-0.134,0-0.214,0.053-0.214,0.161c0,0.188,0.161,0.216,0.431,0.216
		c1.211,0,2.346-0.08,2.59-0.08s1.322,0.08,2.853,0.08c0.324,0,0.484-0.054,0.484-0.216c0-0.108-0.08-0.161-0.215-0.161
		c-0.242,0-0.833-0.027-1.343-0.161c-0.726-0.215-0.995-0.915-1.049-3.122L90.37,43.215z"/>
	<path fill-rule="evenodd" clip-rule="evenodd" fill="#FFFFFF" d="M117.728,47.226c0-4.199,0-4.952,0.055-5.813
		c0.054-0.941,0.269-1.399,0.996-1.533c0.323-0.055,0.484-0.081,0.673-0.081c0.108,0,0.215-0.054,0.215-0.161
		c0-0.162-0.135-0.216-0.431-0.216c-0.807,0-2.502,0.081-2.637,0.081s-1.831-0.081-2.718-0.081c-0.296,0-0.431,0.054-0.431,0.216
		c0,0.107,0.107,0.161,0.214,0.161c0.189,0,0.54,0.026,0.835,0.107c0.592,0.136,0.861,0.593,0.915,1.507
		c0.054,0.861,0.054,1.614,0.054,5.813v4.736c0,2.583,0,4.709-0.135,5.84c-0.108,0.78-0.242,1.372-0.781,1.48
		c-0.242,0.054-0.565,0.107-0.807,0.107c-0.162,0-0.215,0.081-0.215,0.161c0,0.162,0.134,0.216,0.431,0.216
		c0.807,0,2.503-0.08,2.638-0.08s1.83,0.08,3.31,0.08c0.295,0,0.43-0.08,0.43-0.216c0-0.08-0.054-0.161-0.215-0.161
		c-0.242,0-0.834-0.054-1.211-0.107c-0.808-0.108-0.968-0.7-1.049-1.48c-0.135-1.131-0.135-3.257-0.135-5.84V47.226z"/>
	<path fill-rule="evenodd" clip-rule="evenodd" fill="#FFFFFF" d="M127.982,42.705c-0.404-1.051-0.728-1.885-0.728-2.234
		c0-0.188,0.054-0.403,0.351-0.539c0.242-0.107,0.727-0.134,1.022-0.134c0.188,0,0.269-0.054,0.269-0.188s-0.242-0.188-0.727-0.188
		c-1.022,0-2.234,0.081-2.503,0.081c-0.322,0-1.856-0.081-3.148-0.081c-0.43,0-0.7,0.026-0.7,0.188c0,0.107,0.054,0.188,0.215,0.188
		c0.162,0,0.62,0,1.023,0.107c0.942,0.269,1.345,0.565,1.938,2.072l6.595,16.497c0.511,1.292,0.645,1.669,0.968,1.669
		c0.27,0,0.377-0.431,1.13-2.046c0.619-1.319,1.83-4.226,3.472-8.154c1.372-3.311,2.719-6.54,3.015-7.293
		c0.726-1.83,1.13-2.288,1.479-2.529c0.512-0.323,1.104-0.323,1.292-0.323c0.215,0,0.323-0.054,0.323-0.188
		s-0.162-0.188-0.457-0.188c-0.78,0-1.938,0.081-2.101,0.081c-0.322,0-1.56-0.081-2.637-0.081c-0.431,0-0.592,0.054-0.592,0.216
		c0,0.135,0.135,0.161,0.296,0.161c0.296,0,0.699,0,1.022,0.107c0.27,0.136,0.351,0.403,0.351,0.62c0,0.241-0.108,0.618-0.243,1.022
		c-0.592,1.938-4.198,11.33-5.759,14.935L127.982,42.705z"/>
	<path fill-rule="evenodd" clip-rule="evenodd" fill="#FFFFFF" d="M147.276,51.962c0,2.583,0,4.709-0.134,5.84
		c-0.107,0.78-0.242,1.372-0.781,1.48c-0.242,0.054-0.564,0.107-0.808,0.107c-0.16,0-0.214,0.081-0.214,0.161
		c0,0.162,0.134,0.216,0.43,0.216c0.403,0,1.022-0.054,1.561-0.054c0.566-0.026,1.023-0.026,1.077-0.026
		c0.403,0,1.05,0.026,2.099,0.08c1.051,0.027,2.529,0.08,4.548,0.08c1.05,0,1.265,0,1.453-0.699c0.136-0.565,0.351-2.396,0.351-2.61
		c0-0.188,0-0.404-0.162-0.404c-0.133,0-0.188,0.108-0.241,0.404c-0.188,1.104-0.513,1.642-1.212,1.938
		c-0.698,0.296-1.884,0.296-2.583,0.296c-2.637,0-3.041-0.35-3.121-2.206c-0.027-0.565,0-3.687,0-4.603v-2.368
		c0-0.108,0.053-0.188,0.188-0.188c0.457,0,3.122,0.054,3.849,0.136c1.05,0.106,1.292,0.564,1.399,0.941
		c0.107,0.35,0.107,0.618,0.107,0.888c0,0.134,0.054,0.241,0.189,0.241c0.188,0,0.188-0.295,0.188-0.511
		c0-0.188,0.054-1.184,0.107-1.722c0.081-0.889,0.216-1.347,0.216-1.507c0-0.162-0.054-0.217-0.135-0.217
		c-0.108,0-0.215,0.136-0.404,0.351c-0.241,0.27-0.618,0.323-1.264,0.377c-0.62,0.054-3.93,0.054-4.28,0.054
		c-0.133,0-0.16-0.08-0.16-0.269v-7.429c0-0.188,0.053-0.269,0.16-0.269c0.297,0,3.23,0.027,3.688,0.08
		c1.453,0.162,1.723,0.485,1.911,0.915c0.135,0.323,0.161,0.781,0.161,0.97c0,0.215,0.054,0.35,0.216,0.35
		c0.107,0,0.161-0.161,0.188-0.297c0.054-0.322,0.108-1.506,0.136-1.775c0.081-0.754,0.214-1.076,0.214-1.266
		c0-0.134-0.025-0.241-0.107-0.241c-0.134,0-0.242,0.107-0.376,0.134c-0.216,0.055-0.646,0.107-1.158,0.135
		c-0.618,0.027-5.974,0.027-6.162,0.027l-1.104-0.055c-0.592-0.026-1.319-0.026-1.938-0.026c-0.295,0-0.429,0.054-0.429,0.216
		c0,0.107,0.106,0.161,0.214,0.161c0.243,0,0.7,0.026,0.915,0.081c0.889,0.188,1.104,0.619,1.157,1.533
		c0.054,0.861,0.054,1.614,0.054,5.813V51.962z"/>
	<path fill-rule="evenodd" clip-rule="evenodd" fill="#FFFFFF" d="M165.846,40.767c0-0.161,0.08-0.269,0.216-0.323
		c0.269-0.081,0.995-0.161,1.803-0.161c2.88,0,4.656,2.019,4.656,5.383c0,2.045-0.701,3.498-1.643,4.145
		c-0.619,0.43-1.372,0.51-2.019,0.51c-1.184,0-2.421-0.188-2.825-0.43c-0.135-0.08-0.188-0.188-0.188-0.323V40.767z M163.692,51.962
		c0,2.583,0,4.709-0.134,5.84c-0.108,0.78-0.243,1.372-0.781,1.48c-0.241,0.054-0.565,0.107-0.808,0.107
		c-0.161,0-0.215,0.081-0.215,0.161c0,0.162,0.134,0.216,0.431,0.216c0.808,0,2.503-0.08,2.529-0.08c0.135,0,1.83,0.08,3.31,0.08
		c0.297,0,0.432-0.08,0.432-0.216c0-0.08-0.055-0.161-0.215-0.161c-0.242,0-0.834-0.054-1.211-0.107
		c-0.808-0.108-0.969-0.7-1.05-1.48c-0.135-1.131-0.135-3.257-0.135-5.84v-0.646c0-0.135,0.054-0.216,0.188-0.216l3.311,0.054
		c0.161,0,0.241,0.055,0.349,0.162c0.539,0.699,1.805,2.502,2.934,3.983c1.534,2.018,2.478,3.337,3.634,3.954
		c0.699,0.377,1.372,0.513,2.88,0.513h1.911c0.484,0,0.645-0.054,0.645-0.216c0-0.08-0.107-0.161-0.241-0.161
		c-0.163,0-0.539,0-1.051-0.08c-0.673-0.108-1.829-0.404-3.282-1.938c-1.561-1.668-3.392-4.063-5.599-6.889
		c2.424-2.234,3.257-4.226,3.257-6.217c0-1.857-1.184-3.176-1.857-3.66c-1.425-1.022-3.229-1.185-4.924-1.185
		c-0.835,0-2.88,0.081-3.176,0.081c-0.135,0-1.83-0.081-3.042-0.081c-0.296,0-0.43,0.054-0.43,0.216
		c0,0.107,0.108,0.161,0.215,0.161c0.242,0,0.699,0.026,0.915,0.081c0.889,0.188,1.104,0.619,1.157,1.533
		c0.054,0.861,0.054,1.614,0.054,5.813V51.962z"/>
	<path fill-rule="evenodd" clip-rule="evenodd" fill="#FFFFFF" d="M185.868,60.144c1.453,0,2.906-0.323,4.063-1.13
		c1.857-1.319,2.287-3.364,2.287-4.469c0-2.152-0.753-3.821-3.93-6.324l-0.753-0.592c-2.583-2.019-3.283-2.986-3.283-4.521
		c0-1.965,1.453-3.122,3.311-3.122c2.476,0,3.202,1.13,3.365,1.426c0.16,0.297,0.321,1.023,0.349,1.346
		c0.027,0.216,0.055,0.351,0.216,0.351c0.135,0,0.188-0.188,0.188-0.62c0-1.829,0.107-2.717,0.107-2.852s-0.055-0.189-0.27-0.189
		s-0.431-0.026-0.941-0.134c-0.674-0.161-1.454-0.269-2.503-0.269c-3.418,0-5.571,1.963-5.571,4.843c0,1.83,0.646,3.499,3.499,5.842
		l1.211,0.994c2.313,1.911,3.095,2.988,3.095,4.845c0,1.723-1.266,3.579-3.849,3.579c-1.803,0-3.579-0.754-3.982-2.745
		c-0.081-0.377-0.081-0.753-0.081-0.996c0-0.215-0.026-0.296-0.188-0.296c-0.135,0-0.188,0.135-0.215,0.431
		c-0.027,0.432-0.135,1.507-0.135,2.853c0,0.728,0.027,0.835,0.403,1.024C183.365,59.955,184.604,60.144,185.868,60.144z"/>
	<path fill-rule="evenodd" clip-rule="evenodd" fill="#FFFFFF" d="M201.584,47.226c0-4.199,0-4.952,0.055-5.813
		c0.054-0.941,0.269-1.399,0.996-1.533c0.322-0.055,0.484-0.081,0.673-0.081c0.107,0,0.215-0.054,0.215-0.161
		c0-0.162-0.135-0.216-0.431-0.216c-0.807,0-2.503,0.081-2.638,0.081s-1.83-0.081-2.718-0.081c-0.297,0-0.431,0.054-0.431,0.216
		c0,0.107,0.106,0.161,0.214,0.161c0.189,0,0.54,0.026,0.835,0.107c0.593,0.136,0.862,0.593,0.915,1.507
		c0.055,0.861,0.055,1.614,0.055,5.813v4.736c0,2.583,0,4.709-0.135,5.84c-0.108,0.78-0.242,1.372-0.78,1.48
		c-0.243,0.054-0.565,0.107-0.809,0.107c-0.161,0-0.214,0.081-0.214,0.161c0,0.162,0.133,0.216,0.43,0.216
		c0.808,0,2.503-0.08,2.638-0.08s1.831,0.08,3.311,0.08c0.295,0,0.431-0.08,0.431-0.216c0-0.08-0.055-0.161-0.216-0.161
		c-0.243,0-0.834-0.054-1.211-0.107c-0.808-0.108-0.968-0.7-1.05-1.48c-0.135-1.131-0.135-3.257-0.135-5.84V47.226z"/>
	<path fill-rule="evenodd" clip-rule="evenodd" fill="#FFFFFF" d="M216.896,40.578l3.386,0.055c2.578,0.054,3.223,0.672,3.304,1.479
		l0.026,0.296c0.028,0.377,0.082,0.457,0.221,0.457c0.109,0,0.192-0.107,0.192-0.349c0-0.297,0.083-2.154,0.083-2.962
		c0-0.16,0-0.321-0.138-0.321c-0.11,0-0.358,0.08-0.762,0.134c-0.429,0.08-1.047,0.135-1.906,0.135h-10.084
		c-0.323,0-1.346-0.055-2.126-0.135c-0.727-0.054-0.995-0.322-1.184-0.322c-0.108,0-0.216,0.35-0.27,0.51
		c-0.055,0.217-0.593,2.53-0.593,2.8c0,0.162,0.053,0.242,0.136,0.242c0.106,0,0.188-0.054,0.269-0.269
		c0.081-0.188,0.162-0.377,0.458-0.835c0.43-0.646,1.076-0.834,2.744-0.86l3.984-0.055v11.384c0,2.583,0,4.709-0.137,5.84
		c-0.107,0.78-0.24,1.372-0.78,1.48c-0.241,0.054-0.564,0.107-0.808,0.107c-0.16,0-0.214,0.081-0.214,0.161
		c0,0.162,0.134,0.216,0.431,0.216c0.807,0,2.503-0.08,2.636-0.08c0.137,0,1.83,0.08,3.308,0.08c0.295,0,0.43-0.08,0.43-0.216
		c0-0.08-0.054-0.161-0.216-0.161c-0.241,0-0.833-0.054-1.209-0.107c-0.805-0.108-0.967-0.7-1.047-1.48
		c-0.135-1.131-0.135-3.257-0.135-5.84V40.578z"/>
	<path fill-rule="evenodd" clip-rule="evenodd" fill="#FFFFFF" d="M229.761,51.962c0,2.583,0,4.709-0.134,5.84
		c-0.108,0.78-0.243,1.372-0.781,1.48c-0.243,0.054-0.564,0.107-0.808,0.107c-0.161,0-0.214,0.081-0.214,0.161
		c0,0.162,0.133,0.216,0.429,0.216c0.404,0,1.023-0.054,1.562-0.054c0.565-0.026,1.023-0.026,1.077-0.026
		c0.403,0,1.049,0.026,2.099,0.08c1.05,0.027,2.529,0.08,4.548,0.08c1.05,0,1.265,0,1.452-0.699c0.137-0.565,0.352-2.396,0.352-2.61
		c0-0.188,0-0.404-0.162-0.404c-0.134,0-0.189,0.108-0.242,0.404c-0.188,1.104-0.512,1.642-1.212,1.938
		c-0.698,0.296-1.883,0.296-2.583,0.296c-2.636,0-3.04-0.35-3.121-2.206c-0.027-0.565,0-3.687,0-4.603v-2.368
		c0-0.108,0.054-0.188,0.188-0.188c0.457,0,3.121,0.054,3.848,0.136c1.051,0.106,1.292,0.564,1.4,0.941
		c0.107,0.35,0.107,0.618,0.107,0.888c0,0.134,0.054,0.241,0.188,0.241c0.188,0,0.188-0.295,0.188-0.511
		c0-0.188,0.054-1.184,0.107-1.722c0.08-0.889,0.216-1.347,0.216-1.507c0-0.162-0.055-0.217-0.136-0.217
		c-0.107,0-0.215,0.136-0.404,0.351c-0.24,0.27-0.617,0.323-1.264,0.377c-0.619,0.054-3.929,0.054-4.279,0.054
		c-0.134,0-0.161-0.08-0.161-0.269v-7.429c0-0.188,0.054-0.269,0.161-0.269c0.297,0,3.229,0.027,3.688,0.08
		c1.452,0.162,1.723,0.485,1.91,0.915c0.135,0.323,0.162,0.781,0.162,0.97c0,0.215,0.054,0.35,0.215,0.35
		c0.108,0,0.162-0.161,0.188-0.297c0.054-0.322,0.107-1.506,0.135-1.775c0.081-0.754,0.215-1.076,0.215-1.266
		c0-0.134-0.025-0.241-0.107-0.241c-0.135,0-0.242,0.107-0.377,0.134c-0.215,0.055-0.646,0.107-1.157,0.135
		c-0.619,0.027-5.975,0.027-6.162,0.027l-1.104-0.055c-0.591-0.026-1.317-0.026-1.938-0.026c-0.296,0-0.429,0.054-0.429,0.216
		c0,0.107,0.108,0.161,0.215,0.161c0.242,0,0.699,0.026,0.915,0.081c0.888,0.188,1.104,0.619,1.157,1.533
		c0.054,0.861,0.054,1.614,0.054,5.813V51.962z"/>
	<path fill-rule="evenodd" clip-rule="evenodd" fill="#FFFFFF" d="M248.061,60.144c1.453,0,2.906-0.323,4.063-1.13
		c1.857-1.319,2.287-3.364,2.287-4.469c0-2.152-0.753-3.821-3.928-6.324l-0.755-0.592c-2.583-2.019-3.283-2.986-3.283-4.521
		c0-1.965,1.454-3.122,3.311-3.122c2.476,0,3.203,1.13,3.363,1.426c0.162,0.297,0.324,1.023,0.351,1.346
		c0.026,0.216,0.054,0.351,0.216,0.351c0.134,0,0.188-0.188,0.188-0.62c0-1.829,0.108-2.717,0.108-2.852s-0.055-0.189-0.27-0.189
		c-0.216,0-0.431-0.026-0.941-0.134c-0.673-0.161-1.453-0.269-2.503-0.269c-3.419,0-5.571,1.963-5.571,4.843
		c0,1.83,0.646,3.499,3.498,5.842l1.212,0.994c2.314,1.911,3.096,2.988,3.096,4.845c0,1.723-1.266,3.579-3.849,3.579
		c-1.805,0-3.58-0.754-3.983-2.745c-0.08-0.377-0.08-0.753-0.08-0.996c0-0.215-0.028-0.296-0.189-0.296
		c-0.135,0-0.188,0.135-0.215,0.431c-0.027,0.432-0.135,1.507-0.135,2.853c0,0.728,0.026,0.835,0.402,1.024
		C245.558,59.955,246.796,60.144,248.061,60.144z"/>
	<path fill-rule="evenodd" clip-rule="evenodd" fill="#FFFFFF" d="M263.776,47.226c0-4.199,0-4.952,0.055-5.813
		c0.053-0.941,0.27-1.399,0.995-1.533c0.323-0.055,0.485-0.081,0.673-0.081c0.108,0,0.215-0.054,0.215-0.161
		c0-0.162-0.135-0.216-0.431-0.216c-0.807,0-2.502,0.081-2.637,0.081s-1.83-0.081-2.718-0.081c-0.297,0-0.431,0.054-0.431,0.216
		c0,0.107,0.108,0.161,0.215,0.161c0.188,0,0.538,0.026,0.834,0.107c0.593,0.136,0.861,0.593,0.915,1.507
		c0.055,0.861,0.055,1.614,0.055,5.813v4.736c0,2.583,0,4.709-0.136,5.84c-0.106,0.78-0.241,1.372-0.78,1.48
		c-0.241,0.054-0.564,0.107-0.807,0.107c-0.162,0-0.215,0.081-0.215,0.161c0,0.162,0.134,0.216,0.43,0.216
		c0.808,0,2.503-0.08,2.638-0.08s1.83,0.08,3.31,0.08c0.297,0,0.431-0.08,0.431-0.216c0-0.08-0.053-0.161-0.215-0.161
		c-0.242,0-0.834-0.054-1.21-0.107c-0.809-0.108-0.97-0.7-1.051-1.48c-0.135-1.131-0.135-3.257-0.135-5.84V47.226z"/>
	<path fill-rule="evenodd" clip-rule="evenodd" fill="#FFFFFF" d="M67,22.144c0-2.745,0.457-5.14,2.422-7.024
		c0.942-0.915,2.61-1.965,6.19-1.965c2.368,0,4.441,0.727,5.382,1.535c0.7,0.592,1.13,1.695,1.13,2.745
		c0,0.377,0.026,0.565,0.215,0.565c0.162,0,0.215-0.161,0.243-0.565c0.026-0.404,0.026-1.884,0.081-2.771
		c0.054-0.969,0.134-1.292,0.134-1.508c0-0.161-0.054-0.269-0.35-0.295c-0.861-0.054-1.722-0.215-2.744-0.404
		c-1.319-0.242-2.826-0.323-3.903-0.323c-4.145,0-6.594,1.265-8.208,2.879c-2.394,2.396-3.014,5.545-3.014,7.348
		c0,2.556,0.646,5.625,3.257,7.966c1.522,1.364,3.699,2.499,6.501,2.826l-1.588,1.319c-0.242,0.188-0.35,0.295-0.35,0.376
		c0,0.108,0.108,0.162,0.404,0.243c1.588,0.458,1.938,1.184,1.938,1.964c0,0.969-1.05,1.535-1.992,1.641
		c-0.297,0.027-0.538,0.055-0.538,0.297c0,0.135,0.161,0.216,0.349,0.216c0.512,0,1.373-0.161,2.1-0.485
		c0.915-0.377,1.91-1.156,1.91-2.206c0-1.104-1.021-1.75-2.69-1.911c0.188-0.188,1.049-1.022,1.506-1.399
		c0.189,0.027,1.116,0.027,1.331,0.027c1.722,0,3.767-0.188,4.844-0.619c0.484-0.216,0.538-0.27,0.7-0.781
		c0.269-0.916,0.591-3.256,0.591-3.445c0-0.216-0.054-0.403-0.188-0.403c-0.162,0-0.216,0.107-0.27,0.403
		c-0.08,0.484-0.431,1.668-0.995,2.261c-1.077,1.104-2.665,1.345-4.683,1.345C70.956,31.993,67,27.284,67,22.144z"/>
	<path fill-rule="evenodd" clip-rule="evenodd" fill="#FFFFFF" d="M87.749,24.243c0,3.929,1.022,5.813,2.342,7.078
		c1.909,1.803,4.628,1.911,5.543,1.911c1.588,0,3.606-0.27,5.544-1.992c2.153-1.911,2.476-5.141,2.476-8.047v-2.879
		c0-4.198,0-4.952,0.054-5.813c0.055-0.942,0.27-1.372,0.997-1.534c0.323-0.054,0.484-0.081,0.672-0.081
		c0.108,0,0.215-0.054,0.215-0.161c0-0.162-0.134-0.216-0.43-0.216c-0.808,0-2.072,0.081-2.261,0.081
		c-0.162,0-1.642-0.081-2.852-0.081c-0.296,0-0.431,0.054-0.431,0.216c0,0.107,0.107,0.161,0.214,0.161
		c0.243,0,0.7,0.027,0.916,0.081c0.888,0.188,1.103,0.619,1.157,1.534c0.053,0.861,0.053,1.615,0.053,5.813v3.365
		c0,2.771-0.322,5.059-1.561,6.593c-0.969,1.157-2.583,1.938-4.226,1.938c-1.533,0-2.745-0.242-4.063-1.481
		c-1.157-1.103-2.018-2.771-2.018-6.647v-3.768c0-4.198,0-4.952,0.054-5.813c0.053-0.942,0.268-1.426,0.995-1.534
		c0.323-0.054,0.485-0.081,0.673-0.081c0.107,0,0.216-0.054,0.216-0.161c0-0.162-0.135-0.216-0.432-0.216
		c-0.807,0-2.421,0.081-2.664,0.081c-0.243,0-1.885-0.081-3.096-0.081c-0.295,0-0.43,0.054-0.43,0.216
		c0,0.107,0.108,0.161,0.215,0.161c0.242,0,0.699,0.027,0.915,0.081c0.888,0.188,1.104,0.619,1.158,1.534
		c0.054,0.861,0.054,1.615,0.054,5.813V24.243z"/>
	<path fill-rule="evenodd" clip-rule="evenodd" fill="#FFFFFF" d="M111.646,25.05c0,2.584,0,4.71-0.135,5.84
		c-0.107,0.78-0.241,1.373-0.781,1.481c-0.241,0.054-0.564,0.107-0.807,0.107c-0.162,0-0.215,0.081-0.215,0.161
		c0,0.162,0.134,0.216,0.431,0.216c0.808,0,2.369-0.082,2.583-0.082c0.216,0,1.776,0.082,3.095,0.082
		c0.295,0,0.431-0.082,0.431-0.216c0-0.08-0.055-0.161-0.216-0.161c-0.242,0-0.672-0.054-1.049-0.107
		c-0.808-0.108-0.969-0.701-1.051-1.481c-0.134-1.13-0.134-3.256-0.134-5.84v-2.637h0.134c1.292,1.587,6.998,7.75,8.208,8.746
		c1.157,0.915,1.831,1.507,3.257,1.642c0.591,0.054,1.104,0.054,1.856,0.054h1.374c0.458,0,0.592-0.082,0.592-0.216
		c0-0.108-0.162-0.161-0.351-0.161c-0.188,0-0.968-0.054-1.668-0.35c-1.292-0.538-1.75-0.969-4.01-3.068
		c-1.104-1.022-6.702-6.809-7.401-7.588c0.565-0.674,5.247-5.249,5.921-5.894c1.211-1.157,1.803-1.831,2.907-2.314
		c0.538-0.242,1.104-0.377,1.506-0.377c0.215,0,0.269-0.054,0.269-0.188c0-0.134-0.107-0.188-0.404-0.188
		c-0.672,0-2.449,0.081-2.583,0.081c-0.646,0-1.48-0.081-2.019-0.081c-0.188,0-0.323,0.054-0.323,0.188
		c0,0.108,0.108,0.162,0.243,0.215c0.215,0.081,0.35,0.242,0.35,0.565c0,0.458-0.7,1.158-1.454,1.938
		c-0.968,1.05-5.84,6.002-6.297,6.513h-0.107v-1.615c0-4.198,0-4.952,0.054-5.813c0.054-0.942,0.269-1.4,0.995-1.534
		c0.324-0.054,0.485-0.081,0.673-0.081c0.107,0,0.215-0.054,0.215-0.161c0-0.162-0.135-0.216-0.431-0.216
		c-0.807,0-2.367,0.081-2.61,0.081c-0.161,0-1.749-0.081-2.959-0.081c-0.297,0-0.431,0.054-0.431,0.216
		c0,0.107,0.107,0.161,0.215,0.161c0.242,0,0.7,0.027,0.915,0.081c0.889,0.188,1.103,0.619,1.157,1.534
		c0.055,0.861,0.055,1.615,0.055,5.813V25.05z"/>
	<path fill-rule="evenodd" clip-rule="evenodd" fill="#FFFFFF" d="M130.134,24.243c0,3.929,1.023,5.813,2.342,7.078
		c1.911,1.803,4.628,1.911,5.544,1.911c1.587,0,3.605-0.27,5.544-1.992c2.152-1.911,2.476-5.141,2.476-8.047v-2.879
		c0-4.198,0-4.952,0.054-5.813c0.054-0.942,0.27-1.372,0.995-1.534c0.323-0.054,0.485-0.081,0.673-0.081
		c0.108,0,0.217-0.054,0.217-0.161c0-0.162-0.136-0.216-0.432-0.216c-0.808,0-2.072,0.081-2.261,0.081
		c-0.161,0-1.642-0.081-2.853-0.081c-0.297,0-0.431,0.054-0.431,0.216c0,0.107,0.108,0.161,0.216,0.161
		c0.241,0,0.698,0.027,0.915,0.081c0.888,0.188,1.104,0.619,1.156,1.534c0.055,0.861,0.055,1.615,0.055,5.813v3.365
		c0,2.771-0.323,5.059-1.562,6.593c-0.968,1.157-2.583,1.938-4.225,1.938c-1.534,0-2.745-0.242-4.064-1.481
		c-1.158-1.103-2.019-2.771-2.019-6.647v-3.768c0-4.198,0-4.952,0.054-5.813c0.054-0.942,0.27-1.426,0.997-1.534
		c0.322-0.054,0.484-0.081,0.672-0.081c0.108,0,0.216-0.054,0.216-0.161c0-0.162-0.135-0.216-0.431-0.216
		c-0.808,0-2.422,0.081-2.666,0.081c-0.241,0-1.883-0.081-3.094-0.081c-0.296,0-0.431,0.054-0.431,0.216
		c0,0.107,0.107,0.161,0.214,0.161c0.243,0,0.701,0.027,0.916,0.081c0.889,0.188,1.103,0.619,1.157,1.534
		c0.054,0.861,0.054,1.615,0.054,5.813V24.243z"/>
	<path fill-rule="evenodd" clip-rule="evenodd" fill="#FFFFFF" d="M156.186,13.854c0-0.161,0.081-0.269,0.215-0.322
		c0.27-0.081,0.996-0.162,1.804-0.162c2.88,0,4.654,2.019,4.654,5.382c0,2.044-0.699,3.498-1.641,4.145
		c-0.618,0.43-1.373,0.511-2.019,0.511c-1.184,0-2.423-0.188-2.824-0.431c-0.137-0.08-0.189-0.188-0.189-0.323V13.854z
		 M154.032,25.05c0,2.584,0,4.71-0.134,5.84c-0.107,0.78-0.243,1.373-0.78,1.481c-0.243,0.054-0.566,0.107-0.808,0.107
		c-0.161,0-0.217,0.081-0.217,0.161c0,0.162,0.136,0.216,0.432,0.216c0.807,0,2.502-0.082,2.529-0.082
		c0.136,0,1.83,0.082,3.311,0.082c0.296,0,0.43-0.082,0.43-0.216c0-0.08-0.054-0.161-0.214-0.161c-0.243,0-0.835-0.054-1.212-0.107
		c-0.807-0.108-0.969-0.701-1.05-1.481c-0.134-1.13-0.134-3.256-0.134-5.84v-0.646c0-0.134,0.053-0.215,0.189-0.215l3.31,0.054
		c0.16,0,0.241,0.054,0.35,0.162c0.538,0.699,1.803,2.503,2.933,3.983c1.534,2.019,2.477,3.336,3.634,3.956
		c0.699,0.377,1.373,0.512,2.879,0.512h1.911c0.484,0,0.646-0.054,0.646-0.216c0-0.08-0.107-0.161-0.242-0.161
		c-0.161,0-0.538,0-1.05-0.082c-0.672-0.107-1.829-0.403-3.283-1.937c-1.561-1.669-3.391-4.063-5.598-6.89
		c2.423-2.233,3.258-4.225,3.258-6.216c0-1.857-1.185-3.175-1.858-3.66c-1.426-1.023-3.229-1.185-4.925-1.185
		c-0.834,0-2.879,0.081-3.175,0.081c-0.136,0-1.831-0.081-3.042-0.081c-0.296,0-0.431,0.054-0.431,0.216
		c0,0.107,0.107,0.161,0.216,0.161c0.243,0,0.7,0.027,0.915,0.081c0.888,0.188,1.104,0.619,1.158,1.534
		c0.053,0.861,0.053,1.615,0.053,5.813V25.05z"/>
	<path fill-rule="evenodd" clip-rule="evenodd" fill="#FFFFFF" d="M173.947,21.901c0-5.894,3.364-8.854,7.858-8.854
		c4.251,0,8.182,3.472,8.182,9.93c0,7.832-5.006,9.231-7.428,9.231C177.714,32.209,173.947,28.171,173.947,21.901z M171.391,22.654
		c0,4.845,3.067,10.577,10.441,10.577c6.485,0,10.738-4.979,10.738-11.007c0-6.271-4.521-10.092-10.577-10.092
		C174.565,12.132,171.391,18.296,171.391,22.654z"/>
	<path fill-rule="evenodd" clip-rule="evenodd" fill="#FFFFFF" d="M199.755,15.792c-0.404-1.049-0.727-1.884-0.727-2.233
		c0-0.188,0.054-0.404,0.35-0.538c0.242-0.108,0.727-0.135,1.023-0.135c0.188,0,0.269-0.054,0.269-0.188
		c0-0.134-0.241-0.188-0.726-0.188c-1.023,0-2.235,0.081-2.503,0.081c-0.323,0-1.858-0.081-3.149-0.081
		c-0.431,0-0.7,0.028-0.7,0.188c0,0.108,0.054,0.188,0.217,0.188c0.16,0,0.618,0,1.021,0.108c0.941,0.269,1.347,0.565,1.938,2.072
		l6.594,16.498c0.511,1.292,0.646,1.668,0.968,1.668c0.27,0,0.377-0.43,1.131-2.045c0.619-1.319,1.83-4.226,3.472-8.155
		c1.373-3.31,2.719-6.539,3.016-7.293c0.726-1.83,1.129-2.287,1.479-2.529c0.512-0.323,1.104-0.323,1.293-0.323
		c0.215,0,0.322-0.054,0.322-0.188c0-0.134-0.161-0.188-0.458-0.188c-0.779,0-1.937,0.081-2.099,0.081
		c-0.323,0-1.561-0.081-2.637-0.081c-0.432,0-0.593,0.054-0.593,0.216c0,0.134,0.135,0.161,0.297,0.161c0.296,0,0.699,0,1.021,0.108
		c0.27,0.135,0.351,0.404,0.351,0.619c0,0.242-0.107,0.619-0.243,1.022c-0.592,1.938-4.197,11.329-5.758,14.936L199.755,15.792z"/>
	<path fill-rule="evenodd" clip-rule="evenodd" fill="#FFFFFF" d="M219.401,23.947c-0.081,0-0.136-0.055-0.081-0.188l2.367-7.266
		c0.136-0.403,0.271-0.403,0.404,0l2.557,7.266c0.027,0.108,0.027,0.188-0.107,0.188H219.401z M215.633,29.895
		c-0.484,1.345-1.022,2.368-2.261,2.53c-0.214,0.026-0.591,0.054-0.78,0.054c-0.134,0-0.241,0.053-0.241,0.161
		c0,0.162,0.161,0.216,0.511,0.216c1.265,0,2.745-0.082,3.041-0.082c0.297,0,1.453,0.082,2.099,0.082
		c0.242,0,0.404-0.054,0.404-0.216c0-0.108-0.081-0.161-0.269-0.161h-0.271c-0.457,0-1.021-0.242-1.021-0.781
		c0-0.484,0.134-1.13,0.376-1.803l1.615-4.763c0.054-0.135,0.135-0.216,0.269-0.216h5.786c0.135,0,0.188,0.055,0.242,0.162
		l2.503,6.62c0.162,0.431,0,0.673-0.162,0.727c-0.107,0.026-0.188,0.08-0.188,0.188c0,0.161,0.296,0.161,0.808,0.188
		c1.855,0.054,3.821,0.054,4.226,0.054c0.296,0,0.537-0.054,0.537-0.216c0-0.135-0.107-0.161-0.268-0.161
		c-0.27,0-0.674-0.027-1.078-0.162c-0.564-0.161-1.345-0.592-2.313-2.987c-1.644-4.091-5.868-15.206-6.271-16.229
		c-0.322-0.833-0.431-0.968-0.591-0.968c-0.162,0-0.271,0.161-0.593,1.05L215.633,29.895z"/>
	<path fill-rule="evenodd" clip-rule="evenodd" fill="#FFFFFF" d="M262.576,37.486c0.719,0,1.185-0.551,1.185-1.227
		c0-0.677-0.508-1.1-1.164-1.1c-0.825,0-1.162,0.677-1.162,1.164C261.435,36.852,261.771,37.486,262.576,37.486z"/>
	<path fill-rule="evenodd" clip-rule="evenodd" fill="#FFFFFF" d="M116.478,37.486c0.719,0,1.184-0.551,1.184-1.227
		c0-0.677-0.507-1.1-1.163-1.1c-0.825,0-1.163,0.677-1.163,1.164C115.336,36.852,115.674,37.486,116.478,37.486z"/>
	<path fill-rule="evenodd" clip-rule="evenodd" fill="#FFFFFF" d="M200.39,37.486c0.72,0,1.185-0.551,1.185-1.227
		c0-0.677-0.508-1.1-1.163-1.1c-0.825,0-1.162,0.677-1.162,1.164C199.249,36.852,199.586,37.486,200.39,37.486z"/>
	<path fill-rule="evenodd" clip-rule="evenodd" fill="#FFFFFF" d="M74.242,42.55c0.727,0,1.185-0.538,1.185-1.237
		c0-0.674-0.512-1.077-1.158-1.077c-0.834,0-1.158,0.673-1.158,1.158C73.111,41.904,73.435,42.55,74.242,42.55z"/>
	<path fill-rule="evenodd" clip-rule="evenodd" fill="#FFFFFF" d="M74.242,46.613c0.727,0,1.185-0.539,1.185-1.238
		c0-0.673-0.512-1.076-1.158-1.076c-0.834,0-1.158,0.673-1.158,1.158C73.111,45.967,73.435,46.613,74.242,46.613z"/>
	<path fill-rule="evenodd" clip-rule="evenodd" fill="#00421c" d="M23.93,35.806c-0.015,0.17-0.022,0.343-0.022,0.517
		c0,3.269,2.65,5.917,5.918,5.917s5.918-2.648,5.918-5.917c0-0.174-0.007-0.347-0.022-0.517h5.206
		c0.008,0.172,0.012,0.344,0.012,0.517c0,5.075-3.402,9.357-8.05,10.686c-0.45-1.258-1.652-2.157-3.064-2.157
		c-1.412,0-2.614,0.899-3.064,2.156c-4.647-1.33-8.049-5.61-8.049-10.685c0-0.173,0.003-0.345,0.012-0.517H23.93z M29.826,23.836
		c-6.896,0-12.486,5.591-12.486,12.487c0,5.774,3.919,10.633,9.243,12.06c0.14,1.667,1.539,2.978,3.243,2.978
		s3.102-1.31,3.243-2.977c5.325-1.428,9.245-6.286,9.245-12.061c0-0.173-0.003-0.345-0.011-0.517H47.5
		c0.005,0.172,0.008,0.344,0.008,0.517c0,9.765-7.917,17.682-17.682,17.682s-17.682-7.917-17.682-17.682
		c0-9.766,7.917-17.682,17.682-17.682c8.132,0,14.982,5.489,17.045,12.964h-5.481C39.529,27.048,35.054,23.836,29.826,23.836z
		 M23.926,26.903h5.216v8.902h-5.216V26.903z M30.513,26.903h5.216v8.902h-5.216V26.903z"/>
	<circle fill="none" stroke="#FFFFFF" stroke-width="0.6586" stroke-miterlimit="3.8636" cx="29.826" cy="36.323" r="27.552"/>
	<path fill-rule="evenodd" clip-rule="evenodd" fill="#231F20" d="M16.014,54.318c-0.453,0.502-0.933,0.865-1.604,0.887
		c-0.324,0.013-0.803-0.07-1.46-0.66c-0.435-0.392-0.694-0.867-0.733-1.171c-0.03-0.224,0.073-0.497,0.246-0.689
		c0.062-0.07,0.088-0.109,0.054-0.139c-0.03-0.027-0.066-0.008-0.138,0.063s-0.315,0.341-0.473,0.495
		c-0.17,0.169-0.237,0.214-0.273,0.255c-0.027,0.029-0.035,0.058,0.015,0.111c0.149,0.151,0.281,0.324,0.437,0.526
		c0.202,0.264,0.465,0.525,0.662,0.703c0.76,0.685,1.418,0.858,1.98,0.828c0.835-0.043,1.468-0.52,1.766-0.85
		c0.422-0.469,0.811-1.138,0.718-1.998c-0.064-0.603-0.319-1.154-0.861-1.714l0.509,0.021c0.075,0.006,0.112,0.004,0.125-0.011
		c0.018-0.02,0.007-0.048-0.034-0.111c-0.215-0.346-0.16-0.536-0.031-0.681c0.16-0.178,0.445-0.107,0.636,0.029
		c0.059,0.043,0.107,0.078,0.147,0.033c0.022-0.023,0.006-0.066-0.029-0.097c-0.094-0.085-0.278-0.196-0.465-0.257
		c-0.229-0.082-0.541-0.104-0.715,0.088c-0.182,0.202-0.1,0.49,0.178,0.795c-0.065,0.004-0.361,0.015-0.507,0.008
		c-0.03-0.036-0.065-0.067-0.104-0.103c-0.315-0.284-0.722-0.587-0.99-0.687c-0.125-0.04-0.144-0.04-0.258,0.027
		c-0.2,0.123-0.646,0.5-0.677,0.534c-0.036,0.04-0.057,0.083-0.032,0.105c0.029,0.025,0.058,0.015,0.116-0.03
		c0.094-0.075,0.354-0.234,0.556-0.25c0.379-0.025,0.71,0.193,1.081,0.526C16.915,51.858,16.862,53.375,16.014,54.318z"/>
	<path fill-rule="evenodd" clip-rule="evenodd" fill="#231F20" d="M12.059,49.623c0.822-0.514,1.083-0.975,1.175-1.416
		c0.128-0.637-0.205-1.218-0.325-1.409c-0.207-0.333-0.528-0.72-1.141-0.9c-0.682-0.2-1.4,0.153-2.008,0.534l-0.603,0.376
		c-0.878,0.55-1.036,0.647-1.223,0.75c-0.205,0.111-0.323,0.122-0.451-0.009c-0.054-0.061-0.081-0.091-0.105-0.131
		c-0.014-0.022-0.04-0.037-0.063-0.023c-0.033,0.021-0.027,0.058,0.011,0.118c0.106,0.17,0.289,0.423,0.313,0.463
		c0.021,0.033,0.197,0.354,0.355,0.607c0.039,0.063,0.068,0.083,0.102,0.063c0.022-0.015,0.02-0.044,0.006-0.066
		C8.071,48.528,8.017,48.429,8,48.377c-0.077-0.21-0.015-0.313,0.17-0.442c0.172-0.124,0.331-0.224,1.209-0.771l0.704-0.44
		c0.58-0.361,1.101-0.593,1.584-0.535c0.369,0.051,0.743,0.287,0.958,0.631c0.201,0.32,0.308,0.606,0.222,1.045
		c-0.08,0.386-0.316,0.784-1.127,1.29l-0.789,0.493c-0.878,0.549-1.037,0.648-1.223,0.748c-0.204,0.112-0.333,0.131-0.452-0.007
		c-0.053-0.062-0.08-0.092-0.104-0.13c-0.014-0.022-0.04-0.039-0.062-0.024c-0.034,0.021-0.028,0.056,0.011,0.118
		c0.105,0.169,0.333,0.495,0.365,0.547c0.032,0.051,0.229,0.404,0.388,0.659c0.039,0.062,0.067,0.082,0.102,0.062
		c0.022-0.015,0.02-0.045,0.006-0.067c-0.032-0.05-0.086-0.149-0.103-0.201c-0.077-0.21-0.015-0.313,0.169-0.443
		c0.173-0.124,0.331-0.222,1.209-0.771L12.059,49.623z"/>
	<path fill-rule="evenodd" clip-rule="evenodd" fill="#231F20" d="M9.054,43.456c0.616-0.165,1.123-0.3,1.4-0.341
		c0.193-0.024,0.342-0.03,0.402,0.091c0.028,0.056,0.063,0.129,0.078,0.186c0.01,0.039,0.033,0.047,0.052,0.042
		c0.039-0.01,0.043-0.045,0.024-0.116c-0.051-0.193-0.17-0.561-0.184-0.61c-0.014-0.052-0.095-0.429-0.178-0.743
		c-0.019-0.071-0.047-0.098-0.079-0.089c-0.02,0.005-0.035,0.023-0.025,0.062c0.016,0.058,0.03,0.164,0.042,0.257
		c0.026,0.199-0.105,0.276-0.286,0.345c-0.261,0.104-0.767,0.24-1.383,0.405L8.288,43.11l-0.009-0.03
		c0.296-0.409,1.401-2.164,1.561-2.515c0.144-0.333,0.242-0.533,0.184-0.88c-0.025-0.146-0.058-0.268-0.106-0.447l-0.088-0.327
		C9.8,38.803,9.772,38.775,9.74,38.784c-0.025,0.007-0.028,0.049-0.016,0.094c0.012,0.044,0.049,0.234,0.023,0.419
		c-0.046,0.344-0.12,0.479-0.475,1.152c-0.173,0.328-1.195,2.032-1.336,2.248c-0.197-0.092-1.586-0.915-1.783-1.035
		c-0.353-0.215-0.551-0.312-0.737-0.545c-0.092-0.111-0.16-0.238-0.186-0.334c-0.015-0.051-0.03-0.061-0.063-0.053
		c-0.032,0.008-0.038,0.039-0.019,0.108c0.042,0.16,0.175,0.579,0.184,0.61c0.041,0.154,0.076,0.358,0.109,0.486
		C5.455,41.98,5.477,42.009,5.508,42c0.025-0.006,0.031-0.036,0.036-0.071C5.55,41.873,5.58,41.83,5.656,41.81
		c0.109-0.029,0.32,0.093,0.555,0.223c0.312,0.164,1.803,1.008,1.955,1.086l0.006,0.025l-0.385,0.103
		c-1,0.268-1.18,0.315-1.389,0.358c-0.229,0.047-0.351,0.023-0.429-0.141c-0.034-0.072-0.05-0.109-0.063-0.154
		C5.9,43.285,5.88,43.262,5.855,43.269c-0.039,0.011-0.043,0.046-0.024,0.116c0.051,0.192,0.17,0.56,0.186,0.617
		c0.011,0.039,0.093,0.422,0.17,0.711c0.019,0.07,0.041,0.099,0.078,0.088c0.026-0.006,0.032-0.035,0.025-0.061
		c-0.016-0.058-0.039-0.168-0.039-0.224c-0.012-0.224,0.077-0.302,0.292-0.374c0.202-0.067,0.381-0.115,1.382-0.384L9.054,43.456z"
		/>
	<path fill-rule="evenodd" clip-rule="evenodd" fill="#231F20" d="M7.68,38.063c0.969,0.017,1.439-0.228,1.756-0.548
		c0.453-0.463,0.491-1.133,0.495-1.359c0.007-0.392-0.051-0.891-0.467-1.376c-0.462-0.539-1.257-0.633-1.974-0.645l-0.71-0.013
		c-1.036-0.018-1.222-0.021-1.434-0.039c-0.232-0.017-0.338-0.072-0.374-0.252c-0.012-0.079-0.018-0.119-0.018-0.166
		c0-0.027-0.012-0.053-0.039-0.054c-0.04,0-0.054,0.032-0.055,0.106c-0.003,0.2,0.012,0.512,0.011,0.558
		c-0.001,0.04-0.028,0.404-0.033,0.704c-0.001,0.073,0.012,0.106,0.052,0.107c0.026,0,0.041-0.026,0.041-0.053
		c0-0.06,0.009-0.173,0.023-0.225c0.05-0.219,0.158-0.27,0.384-0.28c0.212-0.009,0.398-0.006,1.434,0.012l0.831,0.015
		c0.683,0.012,1.246,0.102,1.62,0.414c0.281,0.244,0.467,0.646,0.459,1.05c-0.006,0.378-0.071,0.676-0.383,0.996
		c-0.277,0.281-0.692,0.486-1.648,0.469l-0.929-0.016c-1.036-0.018-1.222-0.021-1.434-0.039c-0.233-0.018-0.351-0.071-0.375-0.252
		c-0.012-0.079-0.018-0.119-0.017-0.166c0-0.027-0.012-0.054-0.039-0.054c-0.04-0.001-0.054,0.032-0.055,0.105
		c-0.003,0.2,0.01,0.599,0.009,0.657c-0.001,0.061-0.028,0.465-0.033,0.764c-0.001,0.073,0.012,0.105,0.051,0.107
		c0.026,0,0.041-0.027,0.041-0.053c0.001-0.06,0.009-0.172,0.023-0.226c0.05-0.218,0.158-0.271,0.384-0.278
		c0.212-0.01,0.398-0.007,1.434,0.012L7.68,38.063z"/>
	<path fill-rule="evenodd" clip-rule="evenodd" fill="#231F20" d="M5.964,29.979c-0.039-0.011-0.059-0.038-0.061-0.074
		c0-0.069,0.034-0.246,0.091-0.437c0.208-0.68,0.813-0.953,1.606-0.71c0.482,0.147,0.775,0.417,0.859,0.687
		c0.058,0.177,0.022,0.36-0.024,0.513c-0.085,0.279-0.219,0.557-0.306,0.635c-0.029,0.026-0.058,0.031-0.09,0.021L5.964,29.979z
		 M8.45,31.295c0.61,0.187,1.112,0.34,1.369,0.453c0.176,0.082,0.306,0.157,0.293,0.292c-0.005,0.061-0.016,0.141-0.033,0.198
		c-0.012,0.038,0.003,0.057,0.022,0.062c0.039,0.012,0.061-0.016,0.082-0.086c0.059-0.19,0.161-0.597,0.164-0.603
		c0.009-0.031,0.151-0.425,0.258-0.774c0.021-0.07,0.012-0.107-0.02-0.117c-0.019-0.006-0.042,0-0.053,0.039
		c-0.018,0.057-0.073,0.193-0.113,0.278c-0.083,0.182-0.235,0.178-0.425,0.141c-0.277-0.05-0.778-0.204-1.388-0.389l-0.152-0.047
		c-0.032-0.009-0.047-0.027-0.037-0.06l0.251-0.777c0.011-0.038,0.03-0.053,0.063-0.071c0.204-0.076,0.721-0.245,1.151-0.405
		c0.587-0.216,0.966-0.342,1.196-0.571c0.139-0.138,0.22-0.287,0.329-0.644l0.138-0.45c0.035-0.115,0.033-0.157-0.004-0.168
		c-0.019-0.006-0.046,0.014-0.056,0.045c-0.012,0.038-0.039,0.127-0.095,0.242c-0.073,0.151-0.227,0.403-0.693,0.636
		c-0.507,0.248-1.204,0.506-2.029,0.823c-0.353-0.733-0.762-1.073-1.232-1.217c-0.438-0.134-0.834,0.05-0.998,0.174
		c-0.344,0.262-0.513,0.676-0.635,1.076c-0.06,0.197-0.188,0.686-0.21,0.756c-0.009,0.032-0.151,0.426-0.238,0.711
		c-0.021,0.07-0.019,0.106,0.02,0.117c0.025,0.008,0.045-0.014,0.053-0.039c0.018-0.058,0.057-0.164,0.085-0.21
		c0.108-0.196,0.226-0.215,0.445-0.162c0.207,0.049,0.384,0.104,1.375,0.406L8.45,31.295z"/>
	<path fill-rule="evenodd" clip-rule="evenodd" fill="#231F20" d="M9.795,25.458c-1.22-0.792-1.38-1.885-0.776-2.816
		c0.572-0.88,1.818-1.226,3.155-0.358c1.62,1.052,1.237,2.276,0.912,2.778C12.434,26.064,11.093,26.301,9.795,25.458z M9.608,26.089
		c1.002,0.651,2.601,0.787,3.591-0.739c0.872-1.342,0.413-2.891-0.834-3.701c-1.298-0.843-2.696-0.421-3.51,0.833
		C7.857,24.018,8.706,25.503,9.608,26.089z"/>
	<path fill-rule="evenodd" clip-rule="evenodd" fill="#231F20" d="M13.527,18.412c-0.243-0.134-0.436-0.241-0.492-0.307
		c-0.03-0.036-0.054-0.084-0.02-0.157c0.029-0.059,0.117-0.141,0.172-0.188c0.036-0.03,0.042-0.053,0.021-0.079
		c-0.021-0.025-0.076,0.003-0.167,0.08c-0.193,0.162-0.41,0.37-0.46,0.412c-0.061,0.051-0.364,0.279-0.608,0.484
		c-0.081,0.068-0.127,0.116-0.103,0.146c0.017,0.021,0.041,0.027,0.071,0.001c0.03-0.025,0.117-0.098,0.21-0.142
		c0.221-0.098,0.344-0.106,0.695,0.084l3.863,2.073c0.301,0.162,0.387,0.212,0.447,0.161c0.051-0.042,0.003-0.141-0.11-0.566
		c-0.092-0.347-0.324-1.089-0.637-2.092c-0.266-0.844-0.524-1.667-0.587-1.856c-0.153-0.461-0.149-0.612-0.122-0.713
		c0.045-0.142,0.158-0.236,0.193-0.266c0.041-0.034,0.052-0.062,0.031-0.087c-0.021-0.025-0.061-0.01-0.116,0.038
		c-0.147,0.123-0.354,0.322-0.384,0.348c-0.061,0.051-0.308,0.232-0.511,0.403c-0.082,0.068-0.103,0.104-0.078,0.135
		c0.021,0.025,0.051,0.009,0.081-0.016c0.057-0.048,0.133-0.112,0.211-0.143c0.072-0.017,0.129,0.021,0.165,0.062
		c0.038,0.045,0.077,0.133,0.116,0.231c0.195,0.46,1.003,2.807,1.281,3.736L13.527,18.412z"/>
	<path fill-rule="evenodd" clip-rule="evenodd" fill="#231F20" d="M19.788,16.507c-0.018,0.008-0.036,0.002-0.038-0.034
		l-0.229-1.872c-0.012-0.104,0.019-0.119,0.09-0.042l1.33,1.359c0.017,0.021,0.025,0.039-0.004,0.053L19.788,16.507z M19.566,18.23
		c0.032,0.352,0.018,0.636-0.242,0.801c-0.045,0.028-0.127,0.075-0.169,0.093c-0.03,0.015-0.049,0.038-0.038,0.062
		c0.017,0.036,0.059,0.031,0.137-0.005c0.283-0.133,0.605-0.305,0.671-0.335c0.066-0.031,0.333-0.134,0.479-0.201
		c0.054-0.025,0.084-0.055,0.067-0.09c-0.011-0.024-0.035-0.028-0.077-0.009l-0.06,0.029c-0.103,0.048-0.253,0.052-0.31-0.068
		c-0.051-0.108-0.088-0.267-0.104-0.442l-0.135-1.233c-0.002-0.036,0.008-0.062,0.038-0.077l1.294-0.603
		c0.03-0.014,0.047-0.007,0.071,0.011l1.25,1.219c0.081,0.08,0.07,0.15,0.04,0.179c-0.021,0.018-0.034,0.038-0.022,0.062
		c0.017,0.036,0.083,0.005,0.2-0.042c0.421-0.182,0.86-0.386,0.951-0.429c0.066-0.03,0.114-0.067,0.098-0.104
		c-0.014-0.029-0.041-0.024-0.078-0.007c-0.06,0.027-0.153,0.063-0.257,0.076c-0.144,0.022-0.363,0.008-0.83-0.427
		c-0.793-0.744-2.897-2.789-3.094-2.976c-0.159-0.152-0.198-0.171-0.234-0.154s-0.043,0.064-0.022,0.296L19.566,18.23z"/>
	<path fill-rule="evenodd" clip-rule="evenodd" fill="#231F20" d="M28.157,10.841c0.179-0.006,0.287-0.142,0.281-0.315
		c-0.006-0.166-0.135-0.261-0.294-0.255c-0.206,0.007-0.28,0.176-0.276,0.295C27.873,10.692,27.957,10.849,28.157,10.841z
		 M29.49,10.795c0.179-0.006,0.288-0.143,0.281-0.316c-0.005-0.166-0.135-0.261-0.294-0.255c-0.206,0.007-0.28,0.175-0.275,0.295
		C29.207,10.645,29.291,10.802,29.49,10.795z M26.862,14.295c0.034,0.969,0.302,1.424,0.639,1.725
		c0.486,0.428,1.158,0.431,1.383,0.424c0.392-0.014,0.887-0.098,1.351-0.539c0.514-0.49,0.566-1.289,0.541-2.006l-0.024-0.71
		c-0.037-1.035-0.043-1.221-0.037-1.434c0.005-0.233,0.055-0.341,0.232-0.387c0.079-0.017,0.118-0.024,0.165-0.026
		c0.027-0.001,0.053-0.015,0.051-0.042c-0.001-0.04-0.035-0.052-0.107-0.049c-0.199,0.006-0.511,0.038-0.557,0.039
		c-0.04,0.001-0.406-0.005-0.705,0.005c-0.073,0.002-0.105,0.016-0.104,0.056c0.001,0.027,0.028,0.04,0.055,0.038
		c0.06-0.002,0.172,0.001,0.226,0.012c0.221,0.039,0.277,0.144,0.299,0.368c0.02,0.212,0.027,0.398,0.063,1.434l0.029,0.83
		c0.023,0.683-0.036,1.25-0.328,1.638c-0.229,0.294-0.621,0.501-1.026,0.515c-0.378,0.013-0.679-0.037-1.015-0.331
		c-0.294-0.262-0.521-0.666-0.554-1.621l-0.033-0.93c-0.036-1.035-0.042-1.221-0.037-1.434c0.005-0.232,0.054-0.354,0.232-0.386
		c0.079-0.016,0.119-0.024,0.165-0.026c0.026,0,0.053-0.014,0.052-0.041c-0.001-0.04-0.035-0.052-0.108-0.049
		c-0.199,0.007-0.596,0.041-0.656,0.042c-0.059,0.002-0.465-0.004-0.764,0.007c-0.073,0.003-0.105,0.017-0.104,0.057
		c0,0.026,0.027,0.039,0.054,0.038c0.06-0.002,0.172,0,0.227,0.012c0.221,0.039,0.277,0.143,0.298,0.369
		c0.021,0.212,0.028,0.397,0.064,1.432L26.862,14.295z"/>
	<path fill-rule="evenodd" clip-rule="evenodd" fill="#231F20" d="M34.374,12.595c0.144,0.286,0.651,1.288,1.179,2.289
		c0.482,0.913,1.152,2.103,1.205,2.186c0.25,0.432,0.309,0.522,0.36,0.537c0.045,0.012,0.067-0.016,0.18-0.44l1.021-3.754
		c0.103-0.385,0.166-0.52,0.39-0.508c0.082,0.001,0.127,0.013,0.159,0.022c0.045,0.012,0.076-0.001,0.083-0.026
		c0.01-0.039-0.033-0.057-0.104-0.076c-0.263-0.07-0.481-0.108-0.552-0.127c-0.071-0.019-0.374-0.121-0.662-0.198
		c-0.077-0.021-0.13-0.027-0.14,0.011c-0.007,0.025-0.006,0.046,0.039,0.059c0.051,0.014,0.197,0.06,0.305,0.116
		c0.185,0.104,0.192,0.258,0.086,0.675l-0.802,3.278c-0.148-0.267-0.637-1.236-1.088-2.086c-0.703-1.322-1.38-2.611-1.448-2.745
		c-0.047-0.082-0.119-0.252-0.171-0.266c-0.051-0.014-0.09,0.051-0.157,0.302l-0.991,3.673c-0.156,0.583-0.238,0.762-0.411,0.763
		c-0.104,0.006-0.222-0.019-0.272-0.032c-0.033-0.009-0.055-0.001-0.062,0.025c-0.012,0.044,0.025,0.062,0.089,0.079
		c0.289,0.077,0.564,0.13,0.623,0.146c0.058,0.015,0.31,0.104,0.675,0.201c0.077,0.021,0.119,0.019,0.128-0.021
		c0.007-0.025-0.008-0.043-0.04-0.052c-0.058-0.015-0.197-0.06-0.31-0.125c-0.159-0.097-0.179-0.281-0.051-0.811L34.374,12.595z"/>
	<path fill-rule="evenodd" clip-rule="evenodd" fill="#231F20" d="M41.417,16.333c0.501-0.906,0.592-1.068,0.707-1.248
		c0.124-0.197,0.225-0.27,0.397-0.212c0.077,0.027,0.115,0.04,0.155,0.063c0.023,0.013,0.054,0.014,0.066-0.009
		c0.019-0.036-0.004-0.063-0.067-0.098c-0.174-0.097-0.55-0.282-0.579-0.298c-0.029-0.017-0.386-0.237-0.577-0.343
		c-0.063-0.036-0.1-0.04-0.119-0.005c-0.012,0.023,0.004,0.048,0.028,0.061c0.041,0.022,0.112,0.07,0.167,0.123
		c0.112,0.1,0.115,0.23,0.018,0.434c-0.091,0.192-0.182,0.355-0.684,1.261l-0.566,1.022c-0.309,0.558-0.563,1.016-0.728,1.244
		c-0.117,0.156-0.216,0.268-0.345,0.227c-0.059-0.018-0.135-0.044-0.187-0.074c-0.035-0.02-0.056-0.008-0.066,0.009
		c-0.02,0.035,0.003,0.063,0.067,0.098c0.174,0.097,0.549,0.283,0.579,0.298c0.029,0.016,0.386,0.237,0.705,0.413
		c0.064,0.036,0.104,0.034,0.119,0.005c0.009-0.017,0.008-0.041-0.027-0.06c-0.053-0.029-0.174-0.111-0.248-0.168
		c-0.162-0.12-0.126-0.268-0.05-0.445c0.106-0.26,0.36-0.719,0.669-1.276L41.417,16.333z"/>
	<path fill-rule="evenodd" clip-rule="evenodd" fill="#231F20" d="M45.063,17.49c0.1-0.26,0.177-0.466,0.235-0.53
		c0.03-0.035,0.076-0.065,0.153-0.041c0.062,0.021,0.156,0.096,0.21,0.144c0.033,0.031,0.058,0.035,0.08,0.01
		c0.022-0.025-0.013-0.075-0.102-0.154c-0.188-0.169-0.423-0.354-0.472-0.398c-0.06-0.053-0.328-0.322-0.565-0.535
		c-0.079-0.071-0.132-0.11-0.159-0.081c-0.018,0.02-0.021,0.043,0.009,0.07c0.029,0.027,0.114,0.102,0.17,0.189
		c0.128,0.205,0.153,0.326,0.013,0.7l-1.515,4.113c-0.119,0.321-0.158,0.413-0.098,0.466c0.05,0.044,0.141-0.018,0.545-0.189
		c0.331-0.14,1.034-0.472,1.983-0.921c0.798-0.381,1.578-0.751,1.757-0.84c0.435-0.216,0.585-0.233,0.688-0.22
		c0.147,0.026,0.256,0.123,0.29,0.155c0.041,0.036,0.069,0.043,0.09,0.019c0.022-0.025,0.002-0.062-0.052-0.11
		c-0.144-0.129-0.37-0.305-0.399-0.332c-0.059-0.053-0.273-0.273-0.471-0.451c-0.079-0.071-0.117-0.088-0.143-0.058
		c-0.023,0.024-0.002,0.051,0.027,0.078c0.055,0.049,0.129,0.115,0.17,0.188c0.027,0.069-0.002,0.132-0.038,0.172
		c-0.04,0.043-0.122,0.095-0.213,0.147c-0.428,0.257-2.64,1.384-3.522,1.788L45.063,17.49z"/>
	<path fill-rule="evenodd" clip-rule="evenodd" fill="#231F20" d="M47.364,23.122c-0.522,0.365-0.952,0.666-1.199,0.799
		c-0.173,0.089-0.312,0.145-0.41,0.052c-0.045-0.042-0.102-0.099-0.136-0.148c-0.022-0.033-0.047-0.032-0.063-0.021
		c-0.033,0.023-0.024,0.058,0.018,0.117c0.057,0.082,0.156,0.199,0.232,0.308c0.085,0.111,0.15,0.203,0.157,0.214
		c0.057,0.081,0.144,0.216,0.28,0.436c0.144,0.216,0.342,0.523,0.628,0.931c0.149,0.212,0.179,0.255,0.347,0.195
		c0.134-0.052,0.534-0.269,0.577-0.299c0.038-0.027,0.082-0.057,0.059-0.09c-0.019-0.027-0.048-0.023-0.115,0.008
		c-0.25,0.119-0.404,0.129-0.563,0.03c-0.159-0.1-0.327-0.339-0.425-0.48c-0.374-0.533-0.36-0.665,0.003-0.944
		c0.11-0.085,0.746-0.521,0.93-0.65l0.479-0.335c0.022-0.016,0.046-0.016,0.065,0.011c0.064,0.092,0.431,0.638,0.518,0.796
		c0.127,0.228,0.069,0.342,0.008,0.416c-0.056,0.072-0.109,0.11-0.164,0.148c-0.027,0.019-0.042,0.045-0.022,0.072
		c0.026,0.038,0.086-0.004,0.13-0.034c0.038-0.027,0.247-0.157,0.363-0.222c0.191-0.109,0.302-0.147,0.335-0.169
		c0.033-0.023,0.036-0.042,0.024-0.058c-0.015-0.021-0.058-0.024-0.127-0.032c-0.089-0.01-0.153-0.079-0.255-0.202
		c-0.098-0.118-0.567-0.786-0.616-0.857c-0.02-0.027-0.007-0.044,0.031-0.071l1.501-1.051c0.038-0.026,0.062-0.027,0.077-0.005
		c0.042,0.06,0.451,0.657,0.505,0.757c0.173,0.316,0.146,0.416,0.086,0.516c-0.047,0.073-0.136,0.143-0.174,0.169
		c-0.043,0.03-0.063,0.061-0.04,0.093c0.015,0.022,0.055,0.01,0.086-0.004c0.073-0.035,0.32-0.19,0.378-0.224
		c0.163-0.09,0.248-0.109,0.286-0.135c0.028-0.02,0.045-0.04,0.034-0.057c-0.019-0.027-0.056-0.034-0.081-0.057
		c-0.041-0.036-0.113-0.115-0.191-0.214c-0.093-0.122-0.851-1.204-0.877-1.242l-0.146-0.23c-0.078-0.124-0.181-0.271-0.268-0.395
		c-0.043-0.06-0.073-0.08-0.105-0.057c-0.023,0.015-0.018,0.045-0.002,0.066c0.034,0.049,0.094,0.146,0.113,0.196
		c0.088,0.207,0.031,0.311-0.146,0.451c-0.167,0.133-0.319,0.239-1.168,0.833L47.364,23.122z"/>
	<path fill-rule="evenodd" clip-rule="evenodd" fill="#231F20" d="M52.619,26.774c0.037-0.014,0.069-0.005,0.094,0.021
		c0.042,0.054,0.124,0.214,0.196,0.401c0.255,0.663-0.054,1.25-0.828,1.548c-0.472,0.181-0.869,0.148-1.1-0.012
		c-0.154-0.104-0.239-0.271-0.297-0.42c-0.104-0.272-0.171-0.573-0.15-0.688c0.006-0.039,0.027-0.06,0.058-0.072L52.619,26.774z
		 M49.85,27.269c-0.595,0.229-1.085,0.417-1.358,0.485c-0.188,0.044-0.337,0.066-0.409-0.049c-0.034-0.051-0.075-0.121-0.096-0.176
		c-0.015-0.038-0.037-0.043-0.056-0.036c-0.037,0.015-0.038,0.05-0.012,0.118c0.072,0.187,0.24,0.57,0.243,0.576
		c0.012,0.03,0.142,0.428,0.274,0.77c0.026,0.068,0.057,0.092,0.088,0.08c0.019-0.007,0.032-0.026,0.018-0.063
		c-0.021-0.056-0.061-0.197-0.082-0.289c-0.047-0.195,0.075-0.285,0.248-0.373c0.249-0.131,0.738-0.319,1.333-0.547l0.149-0.058
		c0.031-0.012,0.054-0.006,0.065,0.025l0.28,0.767c0.016,0.037,0.01,0.061-0.006,0.095c-0.114,0.186-0.417,0.637-0.658,1.028
		c-0.33,0.531-0.55,0.865-0.59,1.186c-0.025,0.195,0.003,0.362,0.136,0.709l0.169,0.44c0.042,0.112,0.069,0.144,0.106,0.13
		c0.019-0.007,0.027-0.039,0.016-0.07c-0.014-0.037-0.048-0.124-0.074-0.25c-0.035-0.164-0.069-0.457,0.156-0.928
		c0.246-0.507,0.636-1.14,1.091-1.898c0.73,0.361,1.261,0.377,1.721,0.201c0.428-0.165,0.626-0.554,0.679-0.752
		c0.109-0.419-0.013-0.848-0.163-1.239c-0.073-0.192-0.273-0.656-0.299-0.724c-0.012-0.031-0.143-0.428-0.25-0.708
		c-0.026-0.068-0.051-0.094-0.088-0.081c-0.025,0.01-0.027,0.039-0.018,0.064c0.021,0.056,0.055,0.164,0.062,0.219
		c0.035,0.22-0.045,0.308-0.251,0.401c-0.193,0.089-0.367,0.155-1.334,0.526L49.85,27.269z"/>
	<path fill-rule="evenodd" clip-rule="evenodd" fill="#231F20" d="M49.538,33.519c0.05,0.355,0.179,0.699,0.416,0.954
		c0.386,0.409,0.9,0.444,1.169,0.406c0.526-0.074,0.908-0.316,1.411-1.178l0.118-0.205c0.405-0.7,0.618-0.904,0.993-0.958
		c0.479-0.066,0.813,0.249,0.876,0.702c0.084,0.605-0.167,0.821-0.233,0.871c-0.066,0.049-0.239,0.114-0.317,0.132
		c-0.051,0.014-0.083,0.025-0.077,0.064c0.004,0.033,0.052,0.04,0.158,0.025c0.447-0.063,0.667-0.067,0.7-0.072
		s0.044-0.02,0.037-0.073c-0.006-0.052-0.007-0.105,0.001-0.235c0.016-0.169,0.015-0.364-0.021-0.62
		c-0.116-0.835-0.67-1.293-1.374-1.195c-0.448,0.063-0.833,0.277-1.308,1.055l-0.202,0.331c-0.387,0.63-0.623,0.858-1.077,0.922
		c-0.42,0.059-0.918-0.186-1.006-0.817c-0.063-0.44,0.061-0.9,0.534-1.067c0.088-0.033,0.181-0.046,0.24-0.054
		c0.052-0.007,0.071-0.017,0.065-0.056c-0.004-0.033-0.039-0.042-0.112-0.038c-0.106,0.008-0.373,0.019-0.702,0.065
		c-0.177,0.024-0.203,0.035-0.235,0.134C49.498,32.901,49.495,33.21,49.538,33.519z"/>
	<path fill-rule="evenodd" clip-rule="evenodd" fill="#231F20" d="M52.879,37.709c1.035,0.035,1.221,0.041,1.433,0.063
		c0.232,0.021,0.343,0.078,0.37,0.259c0.01,0.08,0.016,0.12,0.014,0.167c0,0.026,0.012,0.054,0.039,0.054
		c0.039,0.002,0.054-0.03,0.057-0.104c0.007-0.199,0.002-0.618,0.002-0.651c0.001-0.033,0.036-0.451,0.044-0.669
		c0.002-0.073-0.01-0.107-0.05-0.108c-0.026-0.001-0.041,0.025-0.042,0.052c-0.002,0.047-0.012,0.132-0.034,0.204
		c-0.039,0.146-0.154,0.208-0.379,0.213c-0.212,0.006-0.399,0-1.434-0.037l-1.168-0.041c-0.638-0.021-1.161-0.04-1.439-0.082
		c-0.191-0.034-0.336-0.072-0.357-0.207c-0.012-0.06-0.021-0.139-0.021-0.2c0.002-0.04-0.018-0.054-0.037-0.054
		c-0.04,0-0.055,0.032-0.058,0.105c-0.006,0.199-0.001,0.617-0.002,0.65c-0.002,0.033-0.036,0.451-0.049,0.816
		c-0.002,0.072,0.016,0.105,0.05,0.107c0.02,0,0.04-0.012,0.042-0.052c0.002-0.061,0.02-0.206,0.036-0.298
		c0.034-0.197,0.181-0.232,0.375-0.246c0.28-0.023,0.805-0.006,1.441,0.018L52.879,37.709z"/>
	<path fill-rule="evenodd" clip-rule="evenodd" fill="#231F20" d="M53.712,42.724l-0.215,0.809
		c-0.167,0.613-0.354,0.731-0.551,0.702l-0.073-0.012c-0.092-0.017-0.114-0.007-0.122,0.025c-0.007,0.026,0.014,0.053,0.072,0.067
		c0.071,0.017,0.511,0.148,0.704,0.196c0.039,0.01,0.077,0.019,0.085-0.014c0.007-0.026,0.001-0.091,0.013-0.19
		c0.007-0.106,0.03-0.259,0.082-0.465l0.603-2.413c0.019-0.078,0.093-0.319,0.159-0.502c0.057-0.17,0.137-0.219,0.148-0.264
		c0.006-0.025-0.071-0.072-0.106-0.094c-0.048-0.027-0.57-0.293-0.635-0.31c-0.039-0.009-0.061-0.002-0.066,0.019
		c-0.006,0.024,0.002,0.047,0.049,0.08c0.04,0.03,0.081,0.061,0.172,0.158c0.129,0.143,0.135,0.308,0.042,0.709l-0.225,0.956
		l-2.725-0.679c-0.619-0.155-1.127-0.281-1.39-0.381c-0.181-0.072-0.314-0.141-0.308-0.275c0.001-0.061,0.008-0.143,0.023-0.199
		c0.009-0.039-0.007-0.057-0.026-0.063c-0.038-0.009-0.06,0.021-0.077,0.092c-0.048,0.191-0.129,0.603-0.138,0.636
		c-0.008,0.032-0.129,0.433-0.217,0.786c-0.018,0.07-0.007,0.108,0.026,0.116c0.019,0.005,0.042-0.004,0.052-0.042
		c0.014-0.058,0.062-0.196,0.097-0.282c0.074-0.188,0.225-0.191,0.417-0.164c0.279,0.036,0.788,0.164,1.407,0.317L53.712,42.724z"/>
	<path fill-rule="evenodd" clip-rule="evenodd" fill="#231F20" d="M49.626,45.766c-0.563-0.298-1.026-0.544-1.256-0.705
		c-0.157-0.113-0.271-0.212-0.232-0.342c0.016-0.059,0.042-0.135,0.07-0.188c0.018-0.034,0.007-0.056-0.01-0.064
		c-0.035-0.02-0.062,0.004-0.097,0.068c-0.046,0.088-0.106,0.229-0.168,0.347c-0.061,0.127-0.113,0.225-0.119,0.236
		c-0.047,0.089-0.128,0.227-0.261,0.448c-0.128,0.227-0.311,0.542-0.545,0.982c-0.121,0.229-0.146,0.275-0.016,0.397
		c0.108,0.094,0.481,0.354,0.528,0.379c0.041,0.021,0.088,0.047,0.106,0.012c0.016-0.03-0.001-0.054-0.06-0.1
		c-0.219-0.17-0.298-0.303-0.282-0.488c0.017-0.187,0.154-0.445,0.235-0.598c0.305-0.575,0.428-0.622,0.842-0.424
		c0.126,0.06,0.804,0.427,1.003,0.532l0.515,0.274c0.023,0.012,0.035,0.033,0.02,0.063c-0.053,0.1-0.373,0.674-0.475,0.821
		c-0.145,0.218-0.272,0.218-0.368,0.198c-0.088-0.019-0.147-0.049-0.206-0.081c-0.029-0.015-0.06-0.017-0.074,0.013
		c-0.021,0.042,0.043,0.076,0.09,0.102c0.041,0.021,0.251,0.148,0.362,0.223c0.184,0.121,0.268,0.203,0.303,0.221
		c0.035,0.019,0.053,0.014,0.062-0.004c0.013-0.023-0.004-0.063-0.029-0.129c-0.03-0.083,0.001-0.172,0.064-0.319
		c0.06-0.141,0.444-0.861,0.484-0.938c0.016-0.029,0.036-0.025,0.077-0.003l1.618,0.859c0.041,0.022,0.052,0.044,0.041,0.067
		c-0.035,0.063-0.38,0.699-0.445,0.794c-0.204,0.298-0.305,0.318-0.42,0.31c-0.086-0.008-0.189-0.055-0.23-0.077
		c-0.047-0.024-0.082-0.028-0.101,0.007c-0.013,0.023,0.016,0.054,0.043,0.075c0.063,0.049,0.315,0.198,0.371,0.234
		c0.155,0.105,0.209,0.172,0.251,0.194c0.029,0.016,0.056,0.022,0.064,0.004c0.015-0.028,0.005-0.064,0.015-0.098
		c0.013-0.053,0.051-0.152,0.104-0.268c0.066-0.138,0.686-1.304,0.708-1.346l0.139-0.234c0.075-0.125,0.159-0.284,0.23-0.419
		c0.034-0.064,0.039-0.101,0.003-0.118c-0.023-0.013-0.048,0.005-0.061,0.028c-0.027,0.053-0.087,0.148-0.123,0.188
		c-0.145,0.173-0.264,0.17-0.468,0.076c-0.194-0.089-0.358-0.176-1.273-0.662L49.626,45.766z"/>
	<path fill-rule="evenodd" clip-rule="evenodd" fill="#231F20" d="M45.3,48.846c-0.23,0.274-0.399,0.601-0.431,0.947
		c-0.045,0.561,0.273,0.965,0.482,1.141c0.406,0.342,0.842,0.465,1.818,0.261l0.231-0.049c0.792-0.168,1.085-0.146,1.375,0.097
		c0.371,0.312,0.359,0.77,0.065,1.12c-0.393,0.469-0.722,0.427-0.803,0.411c-0.081-0.017-0.245-0.103-0.31-0.147
		c-0.046-0.029-0.075-0.045-0.101-0.016c-0.021,0.025,0.006,0.066,0.087,0.135c0.346,0.289,0.497,0.45,0.522,0.473
		c0.025,0.021,0.044,0.019,0.078-0.022c0.035-0.04,0.074-0.077,0.175-0.155c0.137-0.103,0.282-0.232,0.448-0.431
		c0.542-0.646,0.513-1.364-0.032-1.821c-0.346-0.29-0.764-0.434-1.659-0.265l-0.38,0.07c-0.729,0.135-1.055,0.111-1.406-0.183
		c-0.326-0.274-0.477-0.808-0.066-1.296c0.286-0.341,0.709-0.557,1.15-0.317c0.085,0.045,0.156,0.104,0.201,0.143
		c0.041,0.034,0.061,0.042,0.086,0.012c0.021-0.025,0.004-0.057-0.048-0.108c-0.077-0.074-0.263-0.265-0.518-0.478
		c-0.137-0.115-0.161-0.127-0.257-0.088C45.732,48.403,45.501,48.606,45.3,48.846z"/>
	<path fill-rule="evenodd" clip-rule="evenodd" fill="#231F20" d="M44.46,54.17c0.666,0.794,0.785,0.937,0.911,1.107
		c0.14,0.187,0.172,0.307,0.056,0.447c-0.052,0.063-0.079,0.093-0.114,0.123c-0.02,0.017-0.032,0.043-0.015,0.063
		c0.024,0.031,0.059,0.02,0.115-0.027c0.152-0.127,0.46-0.411,0.486-0.434c0.025-0.021,0.358-0.274,0.526-0.415
		c0.056-0.047,0.072-0.078,0.047-0.109c-0.017-0.02-0.046-0.014-0.066,0.004c-0.036,0.029-0.106,0.08-0.176,0.111
		c-0.133,0.069-0.257,0.024-0.412-0.14c-0.146-0.155-0.267-0.298-0.933-1.09l-0.751-0.896c-0.41-0.487-0.746-0.89-0.9-1.124
		c-0.104-0.166-0.173-0.299-0.087-0.404c0.037-0.048,0.089-0.11,0.135-0.148c0.031-0.025,0.028-0.05,0.015-0.064
		c-0.025-0.031-0.059-0.02-0.114,0.027c-0.152,0.128-0.461,0.412-0.486,0.434c-0.025,0.021-0.359,0.275-0.639,0.51
		c-0.055,0.047-0.068,0.084-0.047,0.109c0.013,0.014,0.036,0.021,0.066-0.004c0.046-0.039,0.167-0.123,0.247-0.173
		c0.169-0.106,0.294-0.021,0.433,0.114c0.205,0.192,0.542,0.594,0.952,1.082L44.46,54.17z"/>
	<path fill-rule="evenodd" clip-rule="evenodd" fill="#808184" d="M24.439,57.807c0.271-0.979,0.466-1.607,0.479-1.659
		c0.017-0.064,0.017-0.14-0.035-0.154c-0.045-0.012-0.107,0.014-0.175,0.036l-1.461,0.495c-0.031,0.013-0.058,0.033-0.063,0.052
		c-0.007,0.026,0.011,0.065,0.03,0.07c0.026,0.007,0.047,0.005,0.084-0.005c0.181-0.033,0.692-0.145,0.813-0.112
		c0.103,0.027,0.097,0.103,0.063,0.23c-0.095,0.353-0.169,0.628-0.261,0.974l-0.301,1.122c-0.172,0.643-0.319,1.193-0.414,1.472
		c-0.067,0.194-0.138,0.279-0.359,0.261c-0.129-0.008-0.449-0.071-0.525-0.093c-0.026-0.007-0.059,0.013-0.065,0.038
		c-0.009,0.031,0.026,0.055,0.096,0.073c0.411,0.11,0.956,0.235,0.988,0.244c0.032,0.009,0.439,0.139,0.92,0.268
		c0.077,0.021,0.113,0.016,0.121-0.016c0.007-0.025-0.018-0.061-0.043-0.066c-0.058-0.016-0.322-0.107-0.413-0.152
		c-0.193-0.1-0.193-0.203-0.166-0.409c0.043-0.29,0.185-0.844,0.363-1.482L24.439,57.807z"/>
	<path fill-rule="evenodd" clip-rule="evenodd" fill="#808184" d="M28.344,56.553c-0.914-0.063-1.627,0.519-1.691,1.433
		c-0.039,0.556,0.308,1.306,1.25,1.372c0.265,0.019,0.609-0.057,0.815-0.249c0.021-0.02,0.029-0.031,0.03-0.052
		c0.001-0.02-0.01-0.047-0.03-0.049c-0.02-0.001-0.047,0.011-0.089,0.034c-0.09,0.047-0.227,0.104-0.538,0.082
		c-0.179-0.012-0.979-0.288-0.902-1.387c0.037-0.525,0.382-0.992,0.979-0.95c0.583,0.04,1.051,0.665,0.97,1.824
		c-0.109,1.557-1.206,2.585-2.017,2.961c-0.042,0.019-0.07,0.048-0.073,0.089c-0.002,0.039,0.022,0.068,0.048,0.07
		c0.027,0.001,0.067-0.002,0.108-0.021c0.836-0.347,2.4-1.389,2.53-3.25C29.805,57.454,29.278,56.618,28.344,56.553z"/>
	<path fill-rule="evenodd" clip-rule="evenodd" fill="#808184" d="M31.622,56.624c-0.428,0.055-0.594,0.008-0.634,0.012
		c-0.04,0.006-0.063,0.034-0.055,0.102c0.008,0.064,0.004,0.85,0.03,1.06c0.009,0.071,0.02,0.104,0.053,0.1
		c0.033-0.004,0.048-0.039,0.048-0.099c-0.003-0.188,0.063-0.409,0.188-0.539c0.142-0.151,0.402-0.215,0.593-0.238l1.622-0.199
		c-0.784,1.848-1.279,3.695-1.43,4.59c-0.013,0.062-0.021,0.164-0.012,0.229c0.006,0.046,0.028,0.064,0.067,0.059
		c0.132-0.016,0.613-0.35,0.597-0.481c-0.009-0.072-0.028-0.116-0.029-0.229c-0.006-0.87,0.765-3.587,1.201-4.443
		c0.026-0.057,0.027-0.104,0.024-0.13c-0.005-0.039-0.041-0.062-0.127-0.052L31.622,56.624z"/>
	<path fill-rule="evenodd" clip-rule="evenodd" fill="#808184" d="M37.918,58.939c0.245,0.751-0.142,1.282-0.78,1.489
		c-0.663,0.216-1.021-0.073-1.224-0.544c-0.029-0.068-0.042-0.086-0.073-0.075c-0.031,0.011-0.034,0.046-0.019,0.111
		c0.026,0.146,0.115,0.507,0.212,0.803c0.024,0.077,0.051,0.117,0.158,0.146c0.157,0.032,0.561-0.015,0.819-0.1
		c1.124-0.365,1.648-1.352,1.361-2.236c-0.237-0.732-1.007-0.908-1.435-0.874l-0.011-0.031c0.167-0.152,0.683-0.781,0.477-1.412
		c-0.103-0.314-0.529-0.875-1.558-0.541c-0.474,0.154-0.788,0.389-0.954,0.548c-0.06,0.075-0.057,0.103-0.039,0.159
		c0.047,0.146,0.159,0.423,0.249,0.617c0.025,0.055,0.048,0.061,0.067,0.055s0.04-0.027,0.02-0.09
		c-0.158-0.486,0.092-0.854,0.553-1.004c0.745-0.241,1.101,0.292,1.187,0.558c0.24,0.739-0.356,1.268-0.647,1.425
		c-0.078,0.039-0.135,0.079-0.121,0.123c0.015,0.043,0.063,0.043,0.191,0.028C36.789,58.043,37.643,58.094,37.918,58.939z"/>
	<circle fill="#808184" cx="41.119" cy="56.44" r="0.438"/>
	<circle fill="none" stroke="#808184" stroke-width="1.5186" stroke-miterlimit="3.8637" cx="41.119" cy="56.44" r="0.438"/>
	<circle fill="#808184" cx="19.786" cy="56.44" r="0.438"/>
	<circle fill="none" stroke="#808184" stroke-width="1.5186" stroke-miterlimit="3.8637" cx="19.786" cy="56.44" r="0.438"/>
	<path fill-rule="evenodd" clip-rule="evenodd" fill="#231F20" d="M42.539,13.937c0.17,0,0.279-0.13,0.279-0.289
		c0-0.16-0.12-0.259-0.274-0.259c-0.194,0-0.274,0.16-0.274,0.274C42.27,13.787,42.35,13.937,42.539,13.937z"/>
	<path fill-rule="evenodd" clip-rule="evenodd" fill="#231F20" d="M55.611,37.642c0.168,0,0.278-0.13,0.278-0.288
		c0-0.159-0.12-0.26-0.273-0.26c-0.194,0-0.274,0.159-0.274,0.275C55.342,37.492,55.422,37.642,55.611,37.642z"/>
	<path fill-rule="evenodd" clip-rule="evenodd" fill="#231F20" d="M46.426,56.276c0.17,0,0.278-0.129,0.278-0.288
		s-0.119-0.258-0.272-0.258c-0.194,0-0.273,0.159-0.273,0.272C46.158,56.128,46.237,56.276,46.426,56.276z"/>
	<circle fill="none" stroke="#FFFFFF" stroke-width="0.6586" stroke-miterlimit="3.8636" cx="29.826" cy="36.322" r="27.552"/>
</g>
</svg>
